<svg width="24" height="24" viewBox="0 0 24 24" fill="none" xmlns="http://www.w3.org/2000/svg">
<path d="M10.456 13.544C11.2751 14.3631 12.3861 14.8232 13.5445 14.8232C14.7029 14.8232 15.8139 14.3631 16.633 13.544L19.721 10.456C20.5272 9.6342 20.9763 8.52737 20.9708 7.37619C20.9653 6.225 20.5055 5.12254 19.6915 4.30852C18.8775 3.4945 17.775 3.03474 16.6238 3.02921C15.4726 3.02368 14.3658 3.47283 13.544 4.279L12 5.823M13.544 10.456C12.7249 9.63723 11.6142 9.17728 10.456 9.17728C9.29785 9.17728 8.18711 9.63723 7.368 10.456L4.279 13.544C3.45988 14.3631 2.9997 15.4741 2.9997 16.6325C2.9997 17.7909 3.45988 18.9019 4.279 19.721C5.09812 20.5401 6.20909 21.0003 7.3675 21.0003C8.52591 21.0003 9.63688 20.5401 10.456 19.721L12 18.177L13.544 10.456Z" stroke="white" stroke-width="2" stroke-linecap="round" stroke-linejoin="round"/>
</svg>
