<svg width="25" height="25" viewBox="0 0 25 25" fill="none" xmlns="http://www.w3.org/2000/svg">
<path d="M13.75 8.125V2.5H9.375C8.87772 2.5 8.40081 2.69754 8.04917 3.04917C7.69754 3.40081 7.5 3.87772 7.5 4.375V18.125C7.5 18.6223 7.69754 19.0992 8.04917 19.4508C8.40081 19.8025 8.87772 20 9.375 20H19.375C19.8723 20 20.3492 19.8025 20.7008 19.4508C21.0525 19.0992 21.25 18.6223 21.25 18.125V10H15.625C15.1277 10 14.6508 9.80246 14.2992 9.45083C13.9475 9.0992 13.75 8.62228 13.75 8.125Z" fill="#4B5563"/>
<path d="M15 8.125V2.8125L20.9375 8.75H15.625C15.4592 8.75 15.3003 8.68415 15.1831 8.56694C15.0658 8.44973 15 8.29076 15 8.125Z" fill="#4B5563"/>
<path d="M5 6.25C5 5.91848 5.1317 5.60054 5.36612 5.36612C5.60054 5.1317 5.91848 5 6.25 5V18.125C6.25 18.9538 6.57924 19.7487 7.16529 20.3347C7.75134 20.9208 8.5462 21.25 9.375 21.25H18.75C18.75 21.5815 18.6183 21.8995 18.3839 22.1339C18.1495 22.3683 17.8315 22.5 17.5 22.5H9.435C8.25876 22.5 7.13071 22.0327 6.29898 21.201C5.46726 20.3693 5 19.2412 5 18.065V6.25Z" fill="#4B5563"/>
</svg>
